<?xml version="1.0" encoding="utf-8"?>
<!-- Generator: Adobe Illustrator 24.0.2, SVG Export Plug-In . SVG Version: 6.00 Build 0)  -->
<svg version="1.1" id="Capa_1" xmlns="http://www.w3.org/2000/svg" xmlns:xlink="http://www.w3.org/1999/xlink" x="0px" y="0px"
	 viewBox="0 0 90 90" style="enable-background:new 0 0 90 90;" xml:space="preserve">
<style type="text/css">
	.st0{fill:#1D1D1B;}
	.st1{fill:#0B5391;}
	.st2{fill:#E4372E;}
	.st3{fill:#179A3A;}
	.st4{fill:#F9E013;}
	.st5{fill:#FFFFFF;}
	.st6{fill:#F5F8FA;}
	.st7{fill:none;stroke:#F5F8FA;stroke-miterlimit:10;}
	.st8{fill:none;stroke:#F7F7F7;stroke-miterlimit:10;}
	.st9{fill:none;stroke:#FFFFFF;stroke-miterlimit:10;}
</style>
<g>
	<g>
		<g>
			<path class="st6" d="M6.47,39.88l0.58-3.34l1.01,0.18l-0.37,2.1l1.25,0.22l0.34-1.96l1.01,0.18l-0.34,1.96l2.2,0.38l-0.22,1.24
				L6.47,39.88z"/>
			<path class="st6" d="M11.44,32.91l-0.6,1.95l1.26,0.39l0.67-2.18l0.98,0.3l-1.05,3.39L7.4,35.12l1.01-3.28l0.98,0.31l-0.64,2.07
				l1.1,0.34l0.6-1.95L11.44,32.91z"/>
			<path class="st6" d="M9.01,30.42c0.13-0.45,0.35-1.01,0.63-1.58c0.45-0.95,0.92-1.49,1.51-1.8c0.64-0.34,1.41-0.37,2.29,0.05
				c0.96,0.46,1.45,1.12,1.63,1.8c0.19,0.74,0.01,1.64-0.46,2.62c-0.28,0.59-0.52,0.99-0.69,1.25L9.01,30.42z M13.65,31.23
				c0.07-0.08,0.14-0.24,0.21-0.38c0.5-1.02,0.25-1.96-0.94-2.53c-1.04-0.51-1.88-0.16-2.34,0.82c-0.12,0.25-0.18,0.43-0.2,0.54
				L13.65,31.23z"/>
			<path class="st6" d="M16.32,23.8l-1.14,1.7l1.09,0.73l1.27-1.89l0.86,0.57l-1.97,2.94l-4.61-3.09l1.91-2.85l0.85,0.57l-1.2,1.8
				l0.96,0.64l1.14-1.7L16.32,23.8z"/>
			<path class="st6" d="M14.71,20.74c0.22-0.35,0.58-0.83,1.02-1.33c0.54-0.62,1.02-0.97,1.52-1.06c0.42-0.07,0.83,0.05,1.21,0.38
				c0.53,0.47,0.56,1.17,0.38,1.64l0.02,0.02c0.37-0.19,0.79-0.1,1.27,0.13c0.58,0.28,1.24,0.63,1.47,0.69l-0.85,0.96
				c-0.18-0.04-0.6-0.24-1.23-0.57c-0.62-0.34-0.92-0.29-1.26,0.09l-0.25,0.28l1.64,1.44l-0.82,0.93L14.71,20.74z M17.33,21.38
				l0.33-0.37c0.41-0.47,0.42-0.95,0.06-1.28c-0.38-0.34-0.8-0.25-1.19,0.18c-0.2,0.23-0.3,0.38-0.35,0.45L17.33,21.38z"/>
			<path class="st6" d="M22.07,18.92l0.62,1.35l-1,0.84l-2.27-5.35l1.26-1.06l4.9,3.15l-1.04,0.87l-1.25-0.82L22.07,18.92z
				 M22.54,17.29l-1.02-0.68c-0.29-0.19-0.63-0.44-0.9-0.64l-0.01,0.01c0.15,0.31,0.36,0.68,0.49,0.99l0.51,1.12L22.54,17.29z"/>
			<path class="st6" d="M29.26,15.4c-0.14,0.22-0.51,0.6-1.09,0.95c-1.63,1.01-3.1,0.51-3.94-0.83c-1-1.61-0.4-3.22,1.03-4.11
				c0.55-0.34,1.04-0.49,1.29-0.51l0.31,0.98c-0.27,0.04-0.63,0.14-1.01,0.38c-0.85,0.52-1.19,1.44-0.54,2.5
				c0.59,0.95,1.52,1.2,2.47,0.61c0.32-0.2,0.64-0.49,0.79-0.7L29.26,15.4z"/>
			<path class="st6" d="M28.69,9.71l2.42,5.01l-1.14,0.55l-2.42-5.01L28.69,9.71z"/>
			<path class="st6" d="M35.8,9.96c0.59,1.72-0.1,3.12-1.63,3.65c-1.56,0.53-2.87-0.33-3.39-1.83c-0.54-1.57,0.06-3.09,1.61-3.63
				C34.01,7.6,35.3,8.51,35.8,9.96z M32.03,11.33c0.35,1.03,1.08,1.59,1.88,1.32c0.8-0.28,1-1.2,0.65-2.22
				c-0.32-0.94-1.05-1.6-1.87-1.32C31.88,9.38,31.68,10.3,32.03,11.33z"/>
			<path class="st6" d="M37.28,12.53l-0.92-5.48l1.45-0.24l1.47,1.82c0.42,0.52,0.86,1.15,1.21,1.73l0.02,0
				c-0.2-0.71-0.35-1.45-0.49-2.27l-0.27-1.6l1.14-0.19l0.92,5.48l-1.3,0.22l-1.52-1.92c-0.42-0.53-0.9-1.18-1.27-1.78L37.69,8.3
				c0.15,0.72,0.3,1.49,0.45,2.38l0.28,1.65L37.28,12.53z"/>
			<path class="st6" d="M45.17,7.19l-1.49-0.03L43.7,6.1l4.27,0.09l-0.02,1.06l-1.52-0.03l-0.09,4.5l-1.26-0.03L45.17,7.19z"/>
			<path class="st6" d="M49.21,10.51l-0.6,1.35l-1.29-0.19l2.48-5.25l1.63,0.24l0.9,5.74L51,12.21l-0.22-1.47L49.21,10.51z
				 M50.74,9.78l-0.17-1.22c-0.05-0.34-0.09-0.76-0.12-1.1l-0.02,0c-0.13,0.31-0.27,0.72-0.41,1.02l-0.5,1.12L50.74,9.78z"/>
			<path class="st6" d="M56.71,11.27l-1.96-0.58l-0.38,1.27l2.19,0.65l-0.29,0.99l-3.4-1.01l1.58-5.33l3.29,0.98l-0.29,0.99
				L55.37,8.6l-0.33,1.11L57,10.29L56.71,11.27z"/>
			<path class="st6" d="M59.16,8.74l1.14,0.51l-1.01,2.24l0.02,0.01c0.2-0.14,0.4-0.27,0.6-0.4l1.91-1.16l1.41,0.64l-2.65,1.4
				l0.45,3.71l-1.34-0.6l-0.25-2.75l-0.68,0.34l-0.75,1.65l-1.14-0.51L59.16,8.74z"/>
			<path class="st6" d="M62.03,16.29l2.05-5.33l1.11,0.76l-0.95,2.13c-0.27,0.61-0.58,1.27-0.82,1.79l0.01,0.01
				c0.41-0.44,0.9-0.92,1.4-1.4l1.68-1.61l1.1,0.76l-0.96,2.18c-0.27,0.61-0.53,1.15-0.81,1.7l0.01,0.01
				c0.42-0.46,0.89-0.93,1.36-1.41l1.66-1.62l1.05,0.72l-4.33,3.77l-1.12-0.77l0.96-2.24c0.23-0.52,0.45-1,0.75-1.56l-0.01-0.01
				c-0.44,0.46-0.81,0.84-1.24,1.23l-1.79,1.67L62.03,16.29z"/>
			<path class="st6" d="M72.55,21.44c-1.29,1.28-2.86,1.28-4,0.13c-1.16-1.17-0.96-2.73,0.16-3.85c1.18-1.17,2.82-1.3,3.97-0.13
				C73.89,18.79,73.64,20.35,72.55,21.44z M69.66,18.64c-0.77,0.77-0.96,1.67-0.36,2.27c0.6,0.6,1.52,0.38,2.28-0.38
				c0.71-0.7,0.98-1.65,0.37-2.26C71.35,17.66,70.43,17.88,69.66,18.64z"/>
			<path class="st6" d="M70.89,23.91l4.54-3.2l0.85,1.2l-1,2.12c-0.29,0.61-0.66,1.28-1.03,1.84l0.01,0.02
				c0.55-0.49,1.15-0.94,1.83-1.42l1.33-0.94l0.66,0.94l-4.54,3.2l-0.76-1.08l1.07-2.21c0.3-0.61,0.67-1.32,1.05-1.92l-0.02-0.02
				c-0.58,0.45-1.21,0.91-1.95,1.44l-1.37,0.96L70.89,23.91z"/>
			<path class="st6" d="M77.1,28.91l-0.73,0.39l-1.02-1.9l0.73-0.39L77.1,28.91z"/>
			<path class="st6" d="M80.28,28.67c0.24,0.4,0.49,0.95,0.72,1.54c0.38,0.98,0.46,1.69,0.27,2.34c-0.19,0.69-0.7,1.28-1.61,1.64
				c-0.99,0.39-1.82,0.29-2.43-0.04c-0.67-0.37-1.21-1.11-1.6-2.13c-0.24-0.61-0.37-1.05-0.44-1.36L80.28,28.67z M76.51,31.5
				c0.02,0.11,0.08,0.27,0.14,0.42c0.41,1.06,1.26,1.53,2.5,1.05c1.08-0.41,1.4-1.26,1.01-2.27c-0.1-0.26-0.19-0.42-0.25-0.51
				L76.51,31.5z"/>
			<path class="st6" d="M80.93,40.18c-1.78,0.38-3.09-0.46-3.43-2.05c-0.35-1.61,0.67-2.82,2.21-3.15c1.63-0.35,3.07,0.43,3.41,2.03
				C83.48,38.68,82.43,39.86,80.93,40.18z M80.01,36.28c-1.06,0.23-1.7,0.89-1.53,1.71c0.18,0.83,1.07,1.13,2.13,0.91
				c0.97-0.21,1.71-0.86,1.53-1.7C81.96,36.36,81.07,36.05,80.01,36.28z"/>
		</g>
		<g>
			<path class="st6" d="M13.25,55.04c0.21,0.35,0.47,0.9,0.71,1.52c0.3,0.77,0.39,1.35,0.24,1.84c-0.13,0.4-0.43,0.71-0.9,0.89
				c-0.66,0.25-1.3-0.04-1.63-0.43l-0.02,0.01c-0.01,0.42-0.28,0.75-0.71,1.07c-0.52,0.39-1.14,0.81-1.3,0.99l-0.46-1.2
				c0.11-0.14,0.49-0.43,1.07-0.83c0.59-0.39,0.69-0.68,0.51-1.16l-0.14-0.35l-2.04,0.78L8.13,57L13.25,55.04z M11.47,57.06
				l0.18,0.46c0.23,0.59,0.65,0.82,1.11,0.65c0.48-0.18,0.59-0.6,0.39-1.14c-0.11-0.29-0.19-0.44-0.24-0.52L11.47,57.06z"/>
			<path class="st6" d="M13.81,63.76l-0.98-1.8l-1.16,0.63l1.09,2.01l-0.9,0.49l-1.69-3.11l4.88-2.66l1.64,3.01l-0.91,0.49
				l-1.04-1.91l-1.01,0.55l0.98,1.8L13.81,63.76z"/>
			<path class="st6" d="M17.03,63.03c0.28,0.28,0.64,0.69,1.09,1.31c0.46,0.63,0.66,1.16,0.64,1.64c-0.02,0.45-0.25,0.92-0.69,1.24
				c-0.44,0.32-0.92,0.44-1.37,0.36c-0.58-0.11-1.1-0.52-1.53-1.12c-0.1-0.13-0.18-0.26-0.23-0.36l-1.61,1.17l-0.73-1.01
				L17.03,63.03z M15.72,65.52c0.04,0.1,0.11,0.21,0.22,0.36c0.39,0.54,0.91,0.68,1.37,0.34c0.41-0.3,0.45-0.77,0.09-1.27
				c-0.15-0.21-0.27-0.33-0.35-0.39L15.72,65.52z"/>
			<path class="st6" d="M20.64,67.52l-2.28,2.24c-0.68,0.67-0.77,1.27-0.32,1.73c0.46,0.47,1.05,0.41,1.74-0.28l2.28-2.24l0.88,0.89
				l-2.22,2.19c-1.22,1.2-2.41,1.16-3.43,0.12c-0.98-1-1.01-2.13,0.25-3.37l2.21-2.17L20.64,67.52z"/>
			<path class="st6" d="M23.54,70.45c0.3,0.15,0.87,0.5,1.37,0.88c0.61,0.46,0.95,0.8,1.13,1.23c0.19,0.4,0.19,0.87-0.11,1.27
				c-0.3,0.4-0.8,0.59-1.44,0.4l-0.01,0.01c0.41,0.52,0.5,1.18,0.07,1.76c-0.3,0.4-0.72,0.58-1.17,0.6
				c-0.52,0.02-1.17-0.24-2.05-0.9c-0.5-0.37-0.84-0.68-1.04-0.88L23.54,70.45z M21.8,74.88c0.09,0.09,0.21,0.18,0.38,0.3
				c0.46,0.34,0.99,0.47,1.34,0c0.33-0.45,0.06-0.93-0.44-1.3l-0.34-0.26L21.8,74.88z M23.27,72.9l0.33,0.25
				c0.53,0.39,0.98,0.39,1.22,0.06c0.25-0.34,0.13-0.71-0.33-1.05c-0.22-0.16-0.35-0.24-0.45-0.29L23.27,72.9z"/>
			<path class="st6" d="M27.45,73.17l1.1,0.61l-2.19,3.93l1.93,1.08l-0.51,0.92l-3.03-1.69L27.45,73.17z"/>
			<path class="st6" d="M32.18,75.57l-2.23,5.09l-1.15-0.51l2.23-5.09L32.18,75.57z"/>
			<path class="st6" d="M35.26,82.35c-0.25,0.04-0.79,0-1.43-0.21c-1.83-0.59-2.4-2.02-1.92-3.53c0.58-1.8,2.19-2.4,3.79-1.88
				c0.62,0.2,1.05,0.48,1.23,0.65l-0.55,0.87c-0.21-0.18-0.52-0.38-0.94-0.52c-0.95-0.3-1.87,0.03-2.25,1.21
				c-0.34,1.06,0.07,1.93,1.14,2.27c0.36,0.11,0.79,0.16,1.05,0.15L35.26,82.35z"/>
			<path class="st6" d="M38.16,81.64l-0.62,1.34l-1.28-0.21l2.57-5.21l1.63,0.26l0.81,5.76l-1.33-0.22l-0.19-1.47L38.16,81.64z
				 M39.7,80.94l-0.15-1.22c-0.04-0.34-0.08-0.76-0.1-1.1l-0.02,0c-0.13,0.31-0.28,0.71-0.42,1.02l-0.51,1.11L39.7,80.94z"/>
			<path class="st6" d="M47.45,82.2l-0.27,1.46l-1.3,0.12l1.2-5.69l1.64-0.15l2.21,5.39l-1.35,0.12l-0.55-1.38L47.45,82.2z
				 M48.77,81.13l-0.45-1.14c-0.13-0.32-0.26-0.72-0.37-1.04l-0.02,0c-0.05,0.34-0.1,0.76-0.16,1.09l-0.22,1.2L48.77,81.13z"/>
			<path class="st6" d="M50.94,77.74c0.38-0.16,0.95-0.35,1.6-0.51c0.8-0.19,1.39-0.21,1.85,0c0.38,0.18,0.65,0.51,0.77,1.01
				c0.17,0.69-0.21,1.28-0.63,1.56l0.01,0.02c0.41,0.06,0.71,0.37,0.96,0.84c0.32,0.57,0.65,1.23,0.81,1.41l-1.25,0.3
				c-0.12-0.13-0.36-0.54-0.68-1.17c-0.31-0.64-0.58-0.76-1.08-0.65l-0.37,0.09l0.51,2.12l-1.21,0.29L50.94,77.74z M52.72,79.77
				l0.48-0.12c0.61-0.15,0.89-0.54,0.78-1.01c-0.12-0.5-0.52-0.66-1.08-0.54c-0.3,0.07-0.46,0.14-0.54,0.17L52.72,79.77z"/>
			<path class="st6" d="M61.66,79.71c-0.31,0.27-0.92,0.71-1.6,0.99c-0.94,0.38-1.72,0.42-2.38,0.16c-0.65-0.25-1.19-0.82-1.49-1.58
				c-0.69-1.71,0.16-3.2,1.84-3.88c0.66-0.27,1.23-0.35,1.53-0.33l0.14,1.03c-0.33-0.01-0.72,0.04-1.29,0.27
				c-0.97,0.4-1.48,1.24-1.02,2.36c0.43,1.06,1.35,1.42,2.31,1.03c0.27-0.11,0.47-0.23,0.54-0.31l-0.44-1.08l-0.79,0.32l-0.37-0.91
				L60.56,77L61.66,79.71z"/>
			<path class="st6" d="M64.82,75.5l-1.77,1.03l0.66,1.14l1.97-1.14l0.52,0.89l-3.06,1.78l-2.79-4.8l2.96-1.72l0.52,0.89l-1.87,1.09
				l0.58,1l1.77-1.03L64.82,75.5z"/>
			<path class="st6" d="M67.36,76.65l-3.47-4.35l1.15-0.92l2.17,0.87c0.62,0.25,1.31,0.59,1.9,0.92l0.02-0.02
				c-0.52-0.52-1.01-1.09-1.53-1.74l-1.01-1.27l0.9-0.72l3.47,4.35l-1.03,0.82l-2.27-0.93c-0.63-0.26-1.36-0.59-1.98-0.93
				l-0.01,0.02c0.48,0.55,0.99,1.15,1.55,1.86l1.05,1.31L67.36,76.65z"/>
			<path class="st6" d="M69.58,68.77l-1.02,1.09l-0.77-0.72l2.91-3.13l0.77,0.72l-1.03,1.11l3.29,3.07l-0.86,0.92L69.58,68.77z"/>
			<path class="st6" d="M71.72,64.6l4.42,3.37l-0.76,1.01l-4.42-3.37L71.72,64.6z"/>
			<path class="st6" d="M77.08,66.74L72.3,63.9l0.75-1.26l2.34,0.05c0.67,0.02,1.44,0.09,2.1,0.19l0.01-0.02
				c-0.67-0.3-1.33-0.67-2.05-1.09l-1.4-0.83l0.59-0.99l4.78,2.84l-0.67,1.14l-2.45-0.08c-0.68-0.02-1.48-0.07-2.18-0.17l-0.01,0.03
				c0.65,0.35,1.33,0.73,2.11,1.2l1.44,0.86L77.08,66.74z"/>
			<path class="st6" d="M79.32,59.53l1.18,0.89l-0.48,1.21l-4.54-3.62l0.6-1.53l5.8,0.44l-0.5,1.26l-1.48-0.13L79.32,59.53z
				 M78.96,57.88l-1.22-0.11c-0.34-0.03-0.76-0.09-1.1-0.13l-0.01,0.02c0.28,0.2,0.64,0.43,0.9,0.63l0.97,0.74L78.96,57.88z"/>
		</g>
	</g>
	<g>
		<circle class="st7" cx="45" cy="45" r="30.11"/>
		<path class="st7" d="M59.06,18.37h-0.01c-4.04,2.67-8.86,4.22-14.05,4.22s-10.01-1.54-14.05-4.22h-0.01"/>
		<path class="st7" d="M30.95,71.64c4.04-2.66,8.86-4.21,14.05-4.21s10.01,1.54,14.05,4.21"/>
	</g>
	<path class="st6" d="M88.4,41.63c-0.78-11.39-6.41-22.28-15.06-29.7C69,8.21,63.95,5.38,58.53,3.61
		c-5.42-1.78-11.19-2.44-16.88-2.01c-11.38,0.81-22.32,6.4-29.7,15.1C4.5,25.34,0.65,37,1.62,48.39
		c0.79,11.41,6.44,22.3,15.11,29.72c4.32,3.7,9.4,6.54,14.82,8.3c5.42,1.77,11.19,2.43,16.87,1.99
		c11.39-0.81,22.32-6.41,29.68-15.11c3.7-4.33,6.55-9.39,8.32-14.81C88.2,53.08,88.82,47.31,88.4,41.63z M85.4,58.15
		c-1.73,5.29-4.51,10.21-8.12,14.44c-7.2,8.48-17.86,13.92-28.95,14.7c-5.54,0.42-11.15-0.22-16.43-1.96
		c-3.26-1.06-6.4-2.53-9.3-4.35c-1.8-1.12-3.51-2.38-5.12-3.76C9.04,70,3.54,59.4,2.78,48.29c-0.41-5.52,0.2-11.15,1.94-16.42
		c1.72-5.28,4.49-10.21,8.09-14.44C20,8.96,30.65,3.51,41.75,2.71c5.54-0.42,11.15,0.22,16.44,1.94c5.28,1.72,10.21,4.49,14.43,8.1
		c8.46,7.22,13.96,17.83,14.72,28.95C87.78,47.25,87.14,52.88,85.4,58.15z"/>
	<path class="st8" d="M35.34,20.79c0,0-5.15,4.03-8.47,12.5"/>
	<path class="st8" d="M54.93,20.72c0,0,5.08,4.12,8.26,12.65"/>
	<path class="st8" d="M48.72,22.19c0,0,4.65,4.6,6.96,13.41"/>
	<path class="st8" d="M54.13,69.18c0,0,5.51-4.07,9.03-12.67"/>
	<path class="st8" d="M35.82,69.18c0,0-5.54-4.14-8.98-12.74"/>
	<path class="st8" d="M41.31,67.61c0,0-4.65-4.6-6.96-13.41"/>
	<path class="st8" d="M47.7,67.61c0,0,4.65-4.6,6.96-13.41"/>
	<path class="st6" d="M58.76,23.51c-0.37-0.57-0.81-0.59-1.19-0.02c-0.25,0.37-0.44,0.79-0.69,1.16c-0.87,1.32-1.23,1.47-2.86,1.2
		c-0.35-0.06-0.71-0.09-1.05-0.16c-0.84-0.17-1.04-0.54-0.72-1.3c0.19-0.46,0.39-0.92,0.54-1.4c0.2-0.59,0.04-1.04-0.56-1.39
		c-1.06-0.63-2.23-0.99-3.41-1.31c-1.45-0.4-2.74-1.05-3.69-2.21c-0.92-1.13-1.5-1.23-2.64-0.36c-0.47,0.36-0.86,0.42-1.42,0.19
		c-1.82-0.73-2.93-0.18-3.47,1.65c-0.24,0.82-0.52,1.64-1.15,2.24c-0.85,0.8-0.82,1.68-0.57,2.68c0.26,1,0.38,2.01-0.48,2.88
		c-0.44,0.45-0.58,1.06-0.69,1.66c-0.16,0.93-0.36,1.85-0.47,2.79c-0.12,0.98-0.32,1.98,0.22,2.92c1.07,1.86,1.09,3.83,0.71,5.87
		c-0.24,1.28-0.64,2.57-0.33,3.88c0.2,0.82,0.19,1.59-0.01,2.4c-0.35,1.42-0.35,2.84-0.05,4.28c0.36,1.69,0.86,3.34,1.39,4.98
		c0.76,2.37,0.32,4.78-0.29,7.13c-0.17,0.66-0.1,1.17,0.26,1.69c0.39,0.56,0.94,1.06,1.19,1.67c0.23,0.57,0.59,0.75,1.13,0.86
		c0.49,0.1,0.98,0.06,1.48,0.04c1.19-0.04,1.4-0.31,1.02-1.42c-0.24-0.7-0.14-1.27,0.47-1.76c0.58-0.47,1.07-1.05,1.19-1.75
		c0.13-0.74,0.43-1.32,0.98-1.84c0.51-0.48,0.47-0.98-0.02-1.52c-0.26-0.28-0.59-0.36-0.88-0.54c-1.43-0.9-1.5-1.37-0.36-2.59
		c0.25-0.27,0.57-0.48,0.79-0.79c1.27-1.82,1.42-3.75,0.66-5.77c-0.11-0.29-0.24-0.51,0.03-0.78c0.29-0.28,0.57-0.23,0.89-0.06
		c0.42,0.23,0.86,0.28,1.35,0.16c1-0.23,1.08-1.01,1.21-1.76c0.28-1.53,0.94-2.09,2.63-2.13c0.14-0.01,0.42-0.03,0.69-0.07
		c1.58-0.23,3.66-1.95,3.72-3.17c0.1-1.81-0.6-3.32-2.09-4.45c-0.54-0.41-0.85-0.83-0.6-1.53c0.35-0.96,0.39-1.95,0.25-2.95
		c-0.12-0.82,0.14-1.52,0.73-2.08c0.99-0.94,2-1.86,3.03-2.75c0.94-0.81,1.98-1.51,2.79-2.44C58.94,24.92,59.25,24.26,58.76,23.51z
		 M45.32,24.37c0.25-0.24,0.56-0.31,0.91-0.28c0.43-0.07,0.7,0.18,0.93,0.5c0.26,0.38,0.45,0.81,0.59,1.25
		c0.45,1.35,0.97,2.68,1.44,4.02c0.1,0.29,0.21,0.57,0.28,0.86c0.2,0.87-0.41,1.41-1.07,1.46c-0.26,0.02-0.52,0.01-0.75-0.12
		c-0.29-0.17-0.47-0.43-0.6-0.73c-0.14-0.31-0.22-0.64-0.33-0.97c-0.17-0.52-0.38-1.03-0.58-1.54c-0.33-0.86-0.64-1.73-0.94-2.6
		c-0.08-0.23-0.15-0.45-0.23-0.68C44.82,25.08,44.98,24.69,45.32,24.37z M40.06,33.25c-0.41,0.23-0.84,0.22-1.25-0.01
		c-0.21-0.12-0.34-0.33-0.45-0.54c-0.17-0.32-0.27-0.66-0.4-0.99c-0.19-0.52-0.4-1.03-0.59-1.55c-0.11-0.29-0.2-0.59-0.28-0.89
		c-0.09-0.34-0.02-0.64,0.16-0.92c0.19-0.29,0.43-0.5,0.78-0.57c0.1-0.02,0.21,0,0.31-0.01c0.57-0.06,0.86,0.29,1.09,0.72
		c0.19,0.34,0.3,0.72,0.43,1.08c0.21,0.6,0.43,1.19,0.65,1.79c0.05,0.14,0.1,0.29,0.14,0.43C40.86,32.45,40.65,32.92,40.06,33.25z
		 M43.56,32.91c-0.33,0.38-0.76,0.53-1.26,0.47c-0.2-0.02-0.36-0.12-0.51-0.26c-0.29-0.27-0.45-0.61-0.6-0.96
		c-0.2-0.48-0.33-0.98-0.51-1.47c-0.26-0.71-0.54-1.41-0.8-2.12c-0.13-0.34-0.29-0.68-0.35-1.04c-0.11-0.67,0.23-1.4,0.95-1.52
		C40.57,26,40.66,26,40.75,26c0.57-0.02,0.9,0.31,1.14,0.77c0.16,0.32,0.24,0.66,0.36,0.99c0.37,1.02,0.76,2.04,1.16,3.06
		c0.14,0.35,0.27,0.7,0.39,1.06C43.92,32.28,43.81,32.62,43.56,32.91z M44.38,32.26c-0.18-0.45-0.31-0.92-0.52-1.37
		c-0.49-1.08-0.84-2.21-1.27-3.31c-0.17-0.44-0.34-0.88-0.47-1.33c-0.14-0.48-0.11-0.95,0.23-1.35c0.24-0.28,0.55-0.4,0.9-0.36
		c0.23-0.01,0.44,0,0.64,0.1c0.25,0.12,0.4,0.33,0.51,0.58c0.36,0.83,0.7,1.67,0.99,2.53c0.24,0.71,0.51,1.4,0.77,2.1
		c0.21,0.56,0.45,1.11,0.59,1.69c0.21,0.85-0.42,1.54-1.11,1.52c-0.2-0.01-0.41,0-0.6-0.07C44.69,32.85,44.51,32.57,44.38,32.26z
		 M50.02,34.49c-0.3,0.19-0.63,0.32-0.97,0.42c-0.54,0.17-1.06,0.38-1.58,0.58c-0.36,0.13-0.72,0.29-1.1,0.38
		c-0.64,0.14-0.94,0.05-1.41-0.52c-0.15-0.19-0.15-0.22-0.15-0.6c-0.01-0.19,0.01-0.41,0.11-0.62c0.14-0.28,0.39-0.44,0.66-0.56
		c0.33-0.15,0.69-0.23,1.03-0.36c0.51-0.19,1.02-0.39,1.54-0.57c0.32-0.11,0.65-0.23,0.98-0.29c0.21-0.04,0.4,0.02,0.59,0.1
		c0.3,0.13,0.57,0.31,0.69,0.61C50.61,33.5,50.54,34.16,50.02,34.49z"/>
</g>
</svg>
