<?xml version="1.0" encoding="utf-8"?>
<!-- Generator: Adobe Illustrator 24.0.2, SVG Export Plug-In . SVG Version: 6.00 Build 0)  -->
<svg version="1.1" id="Capa_1" xmlns="http://www.w3.org/2000/svg" xmlns:xlink="http://www.w3.org/1999/xlink" x="0px" y="0px"
	 viewBox="0 0 90 90" style="enable-background:new 0 0 90 90;" xml:space="preserve">
<style type="text/css">
	.st0{fill:#1D1D1B;}
	.st1{fill:#0B5391;}
	.st2{fill:#E4372E;}
	.st3{fill:#179A3A;}
	.st4{fill:#F9E013;}
	.st5{fill:#FFFFFF;}
	.st6{fill:#F5F8FA;}
	.st7{fill:none;stroke:#F5F8FA;stroke-miterlimit:10;}
	.st8{fill:none;stroke:#F7F7F7;stroke-miterlimit:10;}
	.st9{fill:none;stroke:#FFFFFF;stroke-miterlimit:10;}
</style>
<g>
	<g>
		<path class="st6" d="M35.06,85.29l1.52-7.16l1.62,0.35l-1.52,7.16L35.06,85.29z"/>
		<path class="st6" d="M35.42,77.96l-2.56,6.86l-1.81-0.68l-0.49-3.05c-0.14-0.87-0.22-1.88-0.24-2.77l-0.03-0.01
			c-0.24,0.94-0.55,1.88-0.94,2.91l-0.75,2.01l-1.42-0.53l2.56-6.86l1.63,0.61l0.48,3.19c0.13,0.88,0.25,1.94,0.29,2.87l0.03,0
			c0.3-0.92,0.64-1.9,1.06-3.01l0.77-2.07L35.42,77.96z"/>
		<path class="st6" d="M24.48,79.63l1.68,1.02l-0.72,1.19l-4.81-2.92l0.72-1.19l1.71,1.04l3.08-5.07l1.42,0.86L24.48,79.63z"/>
		<path class="st6" d="M18.65,71.79l2.05,1.75l1.13-1.32l-2.29-1.96l0.88-1.03l3.55,3.04l-4.76,5.56l-3.43-2.94l0.88-1.03l2.17,1.86
			l0.99-1.16l-2.05-1.75L18.65,71.79z"/>
		<path class="st6" d="M14.29,73.27c-0.41-0.35-0.96-0.92-1.53-1.6c-0.69-0.84-1.06-1.52-1.07-2.19c-0.01-0.56,0.23-1.07,0.75-1.5
			c0.72-0.6,1.63-0.5,2.21-0.16l0.02-0.02c-0.17-0.52,0.03-1.05,0.43-1.63c0.49-0.7,1.08-1.49,1.21-1.78l1.08,1.3
			c-0.08,0.22-0.43,0.74-0.98,1.48c-0.58,0.73-0.57,1.14-0.15,1.66l0.32,0.38l2.21-1.84l1.05,1.26L14.29,73.27z M15.67,69.99
			l-0.42-0.5c-0.53-0.63-1.16-0.75-1.65-0.34c-0.52,0.43-0.49,1-0.01,1.59c0.26,0.31,0.43,0.46,0.52,0.54L15.67,69.99z"/>
		<path class="st6" d="M15.99,63.92l-6.42,3.51l-0.93-1.7l1.62-2.62c0.47-0.75,1.06-1.57,1.63-2.25l-0.02-0.03
			c-0.8,0.56-1.65,1.06-2.61,1.59L7.4,63.45l-0.73-1.33l6.42-3.51l0.83,1.52l-1.73,2.72c-0.48,0.76-1.08,1.63-1.66,2.35l0.02,0.02
			c0.83-0.5,1.72-1.01,2.77-1.59l1.93-1.06L15.99,63.92z"/>
		<path class="st6" d="M10.39,56.51l1.95-0.05l0.5,1.64L5.19,58.1l-0.63-2.08l6.35-4.3l0.52,1.7l-1.63,1.09L10.39,56.51z M8.67,55.1
			l-1.35,0.89c-0.38,0.25-0.86,0.53-1.24,0.76l0.01,0.02c0.45-0.02,1.01-0.08,1.45-0.09l1.61-0.04L8.67,55.1z"/>
		<path class="st6" d="M4.95,51.29l0.27,1.95l-1.38,0.19l-0.76-5.58l1.38-0.19l0.27,1.98l5.88-0.81l0.23,1.65L4.95,51.29z"/>
		<path class="st6" d="M3.06,44.62l7.32-0.09l0.02,1.66l-7.32,0.09L3.06,44.62z"/>
		<path class="st6" d="M7.49,36.2c2.38,0.33,3.62,1.97,3.33,4.09c-0.3,2.15-2.1,3.19-4.16,2.9c-2.17-0.3-3.6-1.91-3.31-4.06
			C3.66,36.9,5.49,35.92,7.49,36.2z M6.87,41.45c1.42,0.2,2.51-0.33,2.66-1.43c0.15-1.11-0.81-1.89-2.22-2.08
			c-1.3-0.18-2.51,0.29-2.66,1.42C4.49,40.46,5.46,41.25,6.87,41.45z"/>
		<path class="st6" d="M11.43,36.03l-6.87-2.52l0.67-1.81l3.04-0.5c0.87-0.14,1.88-0.24,2.77-0.26l0.01-0.03
			c-0.94-0.23-1.88-0.54-2.91-0.92l-2.01-0.74l0.52-1.43l6.87,2.52l-0.6,1.63l-3.19,0.5c-0.88,0.14-1.94,0.26-2.86,0.3l0,0.03
			c0.92,0.29,1.9,0.63,3.02,1.04l2.07,0.76L11.43,36.03z"/>
		<path class="st6" d="M13.33,26.92l1.32,1.44l-0.91,1.46l-5.03-5.76l1.15-1.84l7.41,1.94l-0.94,1.51l-1.89-0.51L13.33,26.92z
			 M13.26,24.69l-1.56-0.43c-0.44-0.12-0.97-0.3-1.39-0.43l-0.01,0.02c0.31,0.32,0.72,0.71,1.02,1.03l1.09,1.19L13.26,24.69z"/>
		<path class="st6" d="M12.32,18.77l1.11-1.23l4.41,3.97l1.95-2.16l1.03,0.93l-3.06,3.4L12.32,18.77z"/>
		<path class="st6" d="M20.25,13.08l-1.59,1.16l-0.82-1.12l4.54-3.32l0.82,1.12l-1.61,1.18l3.49,4.79l-1.34,0.98L20.25,13.08z"/>
		<path class="st6" d="M27.21,13.35l0.39,1.91l-1.53,0.78L24.75,8.5l1.94-0.98l5.34,5.5l-1.59,0.81l-1.35-1.42L27.21,13.35z
			 M28.31,11.41l-1.11-1.18c-0.31-0.33-0.68-0.75-0.97-1.09l-0.02,0.01c0.1,0.44,0.25,0.98,0.34,1.41l0.32,1.58L28.31,11.41z"/>
		<path class="st6" d="M36.01,8.66l-2.58,0.76l0.49,1.67l2.89-0.85l0.39,1.3l-4.48,1.32l-2.08-7.02l4.33-1.28l0.38,1.3l-2.74,0.81
			l0.43,1.46l2.58-0.76L36.01,8.66z"/>
		<path class="st6" d="M37.13,4.1l1.63-0.19l0.37,3.22l0.03,0c0.13-0.3,0.27-0.58,0.4-0.86l1.37-2.61l2.02-0.23L40.91,6.8l3.02,3.88
			L42,10.91l-2.14-2.94l-0.54,0.84l0.27,2.37l-1.63,0.19L37.13,4.1z"/>
		<path class="st6" d="M45.43,10.74l-0.91-7.46l1.76,0.2l0.21,3.06c0.06,0.88,0.11,1.84,0.15,2.58l0.02,0
			c0.21-0.77,0.48-1.63,0.76-2.5l0.95-2.91l1.75,0.2l0.24,3.13c0.07,0.87,0.1,1.66,0.11,2.48l0.02,0c0.2-0.8,0.46-1.63,0.71-2.48
			l0.93-2.91l1.67,0.19l-2.7,7.06l-1.78-0.2l-0.26-3.2C49,7.23,48.96,6.54,48.97,5.7l-0.02,0c-0.22,0.81-0.42,1.48-0.67,2.2
			l-1.04,3.05L45.43,10.74z"/>
		<path class="st6" d="M60.88,10.65c-0.83,2.25-2.7,3.12-4.71,2.37c-2.04-0.75-2.66-2.73-1.94-4.69c0.76-2.06,2.64-3.11,4.67-2.37
			C61,6.75,61.57,8.76,60.88,10.65z M55.88,8.91c-0.5,1.35-0.21,2.53,0.83,2.91c1.05,0.39,2.02-0.39,2.51-1.73
			c0.46-1.23,0.25-2.51-0.82-2.91C57.35,6.8,56.37,7.58,55.88,8.91z"/>
		<path class="st6" d="M60.21,14.53l3.93-6.17l1.63,1.04l-0.16,3.08c-0.05,0.88-0.17,1.89-0.34,2.76l0.03,0.02
			c0.43-0.87,0.93-1.72,1.52-2.65l1.15-1.8l1.28,0.82l-3.93,6.17l-1.47-0.93l0.2-3.22c0.05-0.89,0.16-1.95,0.32-2.86l-0.03-0.01
			c-0.48,0.84-1.02,1.72-1.66,2.73l-1.18,1.86L60.21,14.53z"/>
		<path class="st6" d="M70.25,17.67l-0.72,0.83l-2.14-1.87l0.72-0.82L70.25,17.67z"/>
		<path class="st6" d="M74.17,16.04c0.47,0.4,1.02,0.97,1.55,1.61c0.89,1.06,1.28,1.91,1.33,2.8c0.06,0.95-0.33,1.89-1.31,2.72
			c-1.07,0.9-2.14,1.13-3.05,0.98c-0.99-0.18-1.97-0.88-2.9-1.98c-0.55-0.66-0.9-1.16-1.12-1.51L74.17,16.04z M70.66,21.15
			c0.07,0.13,0.21,0.3,0.35,0.46c0.96,1.15,2.22,1.37,3.55,0.25c1.17-0.97,1.21-2.17,0.3-3.26c-0.24-0.28-0.42-0.44-0.53-0.53
			L70.66,21.15z"/>
		<path class="st6" d="M79.62,30.46c-2.12,1.12-4.09,0.51-5.08-1.39c-1.01-1.92-0.15-3.81,1.69-4.78c1.94-1.02,4.04-0.54,5.05,1.37
			C82.32,27.65,81.41,29.52,79.62,30.46z M77.07,25.83c-1.27,0.67-1.85,1.73-1.33,2.71c0.52,0.99,1.76,1.06,3.02,0.4
			c1.16-0.61,1.87-1.69,1.34-2.7C79.58,25.24,78.33,25.16,77.07,25.83z"/>
		<path class="st6" d="M84.27,33.22l1.04,4.35l-1.32,0.31l-0.65-2.73l-1.63,0.39l0.61,2.55l-1.31,0.31l-0.61-2.56l-2.86,0.68
			l-0.39-1.62L84.27,33.22z"/>
		<path class="st6" d="M81.73,44.35l-0.2-2.69l-1.73,0.13l0.22,3l-1.35,0.1l-0.34-4.66l7.3-0.54l0.33,4.51l-1.35,0.1l-0.21-2.85
			l-1.52,0.11l0.2,2.69L81.73,44.35z"/>
		<path class="st6" d="M85.9,46.49c0.03,0.62,0,1.41-0.09,2.24c-0.15,1.38-0.5,2.25-1.11,2.9c-0.65,0.69-1.6,1.07-2.88,0.93
			c-1.39-0.15-2.3-0.77-2.82-1.54c-0.55-0.84-0.73-2.04-0.57-3.46c0.09-0.85,0.22-1.45,0.31-1.86L85.9,46.49z M79.77,47.48
			c-0.05,0.14-0.07,0.36-0.1,0.57c-0.18,1.49,0.54,2.55,2.28,2.74c1.51,0.18,2.41-0.62,2.57-2.04c0.04-0.37,0.03-0.61,0.02-0.75
			L79.77,47.48z"/>
		<path class="st6" d="M79.41,57.94l0.79-2.58l-1.66-0.51l-0.88,2.88l-1.3-0.4l1.37-4.46l7,2.15l-1.33,4.32l-1.3-0.4l0.84-2.73
			l-1.45-0.45l-0.79,2.58L79.41,57.94z"/>
		<path class="st6" d="M82.48,61.39c-0.16,0.51-0.46,1.25-0.86,2.03c-0.49,0.97-0.98,1.57-1.58,1.85c-0.51,0.23-1.07,0.21-1.67-0.09
			c-0.83-0.42-1.1-1.3-1.02-1.97l-0.03-0.01c-0.42,0.36-0.98,0.39-1.66,0.25c-0.84-0.17-1.79-0.4-2.11-0.4l0.77-1.51
			c0.24-0.01,0.85,0.1,1.75,0.32c0.9,0.24,1.27,0.07,1.58-0.52l0.23-0.45l-2.57-1.3l0.74-1.46L82.48,61.39z M78.93,61.42L78.64,62
			c-0.37,0.74-0.23,1.36,0.34,1.65c0.6,0.3,1.11,0.05,1.46-0.62c0.18-0.36,0.26-0.58,0.29-0.69L78.93,61.42z"/>
		<path class="st6" d="M73.61,66.09l-1.16-1.56l1.05-1.35l4.4,6.25l-1.33,1.71l-7.17-2.7l1.09-1.41l1.83,0.71L73.61,66.09z
			 M73.45,68.32l1.5,0.59c0.42,0.16,0.93,0.39,1.34,0.57l0.01-0.02c-0.28-0.35-0.65-0.78-0.91-1.13l-0.96-1.29L73.45,68.32z"/>
		<path class="st6" d="M72.49,73.56l1.43-1.35l0.95,1.01l-4.1,3.85l-0.95-1.01l1.46-1.37l-4.06-4.32l1.21-1.14L72.49,73.56z"/>
		<path class="st6" d="M68.13,78.96l-4.3-5.92l1.34-0.98l4.3,5.92L68.13,78.96z"/>
		<path class="st6" d="M58.7,80.19c-1.1-2.13-0.47-4.09,1.43-5.07c1.93-1,3.81-0.12,4.77,1.73c1.01,1.95,0.51,4.05-1.41,5.04
			C61.49,82.91,59.63,81.98,58.7,80.19z M63.36,77.68c-0.66-1.27-1.72-1.86-2.7-1.35c-0.99,0.51-1.08,1.75-0.42,3.02
			c0.6,1.17,1.68,1.88,2.69,1.36C63.92,80.18,64.01,78.94,63.36,77.68z"/>
		<path class="st6" d="M56.28,77.09l1.89,7.07l-1.87,0.5l-2.16-2.2c-0.62-0.63-1.27-1.4-1.8-2.11l-0.03,0.01
			c0.35,0.9,0.64,1.85,0.93,2.91l0.55,2.07l-1.47,0.39l-1.89-7.07l1.68-0.45l2.24,2.32c0.62,0.64,1.33,1.43,1.9,2.17l0.03-0.02
			c-0.29-0.92-0.58-1.91-0.89-3.07l-0.57-2.13L56.28,77.09z"/>
	</g>
	<g>
		<g>
			<g>
				<path class="st6" d="M73.32,11.89c-4.33-3.71-9.4-6.56-14.82-8.32C53.07,1.81,47.3,1.15,41.62,1.58
					C30.23,2.4,19.3,7.99,11.92,16.7c-3.7,4.34-6.54,9.4-8.31,14.82c-1.79,5.41-2.43,11.19-2,16.87
					c0.77,11.4,6.42,22.29,15.08,29.71c4.33,3.71,9.4,6.55,14.81,8.32c5.42,1.77,11.19,2.44,16.88,2.01
					c11.39-0.81,22.33-6.39,29.72-15.1c3.71-4.33,6.56-9.4,8.33-14.82c1.8-5.42,2.44-11.2,2-16.88
					C87.64,30.21,81.99,19.31,73.32,11.89z M73.92,11.19c8.85,7.57,14.61,18.71,15.41,30.36c0.44,5.8-0.21,11.7-2.04,17.23
					c-1.8,5.54-4.71,10.71-8.49,15.13c-7.53,8.9-18.7,14.61-30.34,15.45c-5.81,0.45-11.7-0.23-17.24-2.04
					c-5.54-1.81-10.72-4.71-15.15-8.5C7.21,71.25,1.42,60.12,0.62,48.46c-0.45-5.81,0.21-11.71,2.05-17.25
					c1.81-5.54,4.72-10.71,8.51-15.15c7.55-8.9,18.73-14.6,30.37-15.43c5.81-0.44,11.7,0.24,17.24,2.05
					C64.33,4.49,69.5,7.4,73.92,11.19z"/>
				<path class="st6" d="M45.54,85.75c-0.74,0.01-1.48-0.28-2.02-0.81c-0.54-0.52-0.85-1.27-0.85-2.01c-0.01-0.75,0.3-1.5,0.83-2.03
					c0.53-0.53,1.28-0.84,2.02-0.83c0.75,0,1.49,0.31,2.01,0.84c0.53,0.52,0.83,1.27,0.82,2.01C48.39,84.42,47.06,85.78,45.54,85.75
					z M45.54,84.82c0.5,0.01,1-0.19,1.36-0.55c0.36-0.35,0.55-0.86,0.55-1.36c0.02-1.02-0.91-1.91-1.91-1.88
					c-1.01-0.01-1.89,0.89-1.88,1.88C43.63,83.93,44.52,84.84,45.54,84.82z"/>
			</g>
		</g>
	</g>
	<g>
		<path class="st6" d="M44.98,12.39c-18.07-0.11-32.77,14.67-32.73,32.59c0.04,18.15,14.67,32.59,32.63,32.64
			c18.18,0.05,32.88-14.43,32.88-32.69C77.75,26.91,63.07,12.3,44.98,12.39z M56.07,16.32c0.33-0.21,0.58-0.6,1.11-0.36
			c1.58,0.72,3.16,1.47,4.63,2.41c0.74,0.48,1.46,0.99,2.29,1.54c-0.97,0.64-1.85,1.23-2.71,1.81c-0.27,0.17-0.39,0.02-0.52-0.21
			c-1.17-1.97-2.7-3.58-4.61-4.85C56.14,16.59,55.83,16.48,56.07,16.32z M53.02,18.12c-0.05-0.12-0.18-0.24-0.06-0.41
			c0.17-0.23,1.73-0.69,1.98-0.54c2.09,1.23,3.74,2.91,5,4.98c0.05,0.06,0.07,0.13,0.16,0.34c-0.08,0.05-0.21,0.12-0.34,0.19
			c-1.47,0.77-2.97,1.45-4.54,2.02c-0.33,0.11-0.45,0.04-0.49-0.28C54.38,22.26,53.78,20.17,53.02,18.12z M53.61,24.89
			c0.05,0.39-0.22,0.42-0.43,0.47c-2.23,0.6-4.5,1-6.82,1.09c-0.45,0.02-0.48-0.21-0.48-0.54c0.01-1.03,0-2.05,0-3.06
			c0-1.03,0.01-2.05,0-3.06c0-0.37,0.05-0.59,0.52-0.62c1.67-0.07,3.29-0.4,4.89-0.89c0.33-0.1,0.49-0.1,0.63,0.24
			C52.73,20.57,53.32,22.68,53.61,24.89z M36.77,14.63c3.62-1.05,7.34-1.23,11.05-0.97c2.41,0.17,4.78,0.68,7.08,1.45
			c0.12,0.04,0.25,0.06,0.27,0.22c0,0.14-0.12,0.18-0.24,0.24c-2.06,1.03-4.21,1.81-6.49,2.23c-2.82,0.53-5.63,0.4-8.41-0.27
			c-1.91-0.47-3.74-1.17-5.56-2.1C35.22,14.94,36.02,14.85,36.77,14.63z M44.7,22.87c0,1-0.06,2,0.02,2.99
			c0.04,0.51-0.14,0.53-0.52,0.52c-1.54-0.02-3.06-0.27-4.57-0.59c-0.76-0.16-1.51-0.33-2.23-0.57c-0.37-0.12-0.4-0.3-0.35-0.59
			c0.3-2.01,0.88-3.96,1.58-5.86c0.11-0.3,0.25-0.41,0.65-0.29c1.62,0.43,3.25,0.74,4.92,0.76c0.35,0.01,0.53,0.05,0.52,0.49
			C44.67,20.78,44.7,21.83,44.7,22.87z M36.98,20.08c-0.43,1.27-0.76,2.57-0.94,3.9c-0.07,0.54-0.18,0.78-0.83,0.52
			c-1.4-0.58-2.75-1.21-4.1-1.88c-0.16-0.07-0.54-0.11-0.24-0.56c1.29-1.86,2.87-3.34,4.91-4.36c0.66-0.33,1.13,0.08,1.69,0.24
			c0.11,0.04,0.18,0.16,0.12,0.3C37.38,18.87,37.19,19.47,36.98,20.08z M31.37,16.61c0.1-0.05,0.19-0.06,0.28-0.11
			c1.25-0.62,1.99-0.51,3.1,0.48c-1.95,1.03-3.49,2.52-4.71,4.33c-0.31,0.47-0.53,0.47-0.93,0.19c-0.89-0.63-1.8-1.23-2.75-1.87
			C27.95,18.41,29.65,17.48,31.37,16.61z M34.22,73.86c-0.58,0.42-1.03,0.33-1.62,0.06c-2.03-0.93-3.98-1.97-5.8-3.25
			c-0.47-0.34-0.7-0.43-0.02-0.84c0.78-0.46,1.51-1.03,2.3-1.48c0.13-0.08,0.25-0.16,0.39-0.24c0.24,0.01,0.33,0.23,0.41,0.39
			c1.06,1.93,2.58,3.45,4.39,4.67C34.8,73.52,34.64,73.56,34.22,73.86z M44.7,67.1c0,0,0,0,0.01,0c0,1.04-0.02,2.09,0.01,3.13
			c0.01,0.4-0.12,0.53-0.49,0.54c-1.7,0.07-3.35,0.41-4.97,0.93c-0.31,0.11-0.41,0-0.53-0.28c-0.81-1.99-1.34-4.04-1.7-6.15
			c-0.07-0.45,0.1-0.64,0.47-0.75c2.22-0.57,4.46-0.93,6.76-1.06c0.3-0.01,0.48,0,0.46,0.43C44.67,64.96,44.7,66.03,44.7,67.1z
			 M37.71,71.86c0.04,0.06,0.05,0.13,0.06,0.21c0,0.05,0,0.11-0.02,0.14c-0.14,0.27-1.85,0.66-2.11,0.51
			c-1.99-1.25-3.66-2.81-4.85-4.86c-0.21-0.37-0.1-0.46,0.18-0.6c1.4-0.77,2.86-1.45,4.36-2c0.35-0.13,0.6-0.18,0.68,0.31
			C36.28,67.73,36.86,69.83,37.71,71.86z M49.92,76.05c-1.92,0.37-3.82,0.45-5.74,0.39c-2.93-0.1-5.82-0.57-8.63-1.44
			c-0.14-0.04-0.31-0.06-0.35-0.23c-0.06-0.27,0.19-0.23,0.33-0.3c4.73-2.47,9.7-3.35,14.95-2.11c1.91,0.46,3.72,1.17,5.63,2.06
			C54.01,75.18,51.98,75.64,49.92,76.05z M45.87,67.02c0-1.01,0.02-2.04,0-3.06c-0.01-0.39,0.07-0.49,0.49-0.47
			c2.34,0.16,4.63,0.52,6.88,1.21c0.27,0.08,0.39,0.17,0.35,0.46c-0.27,2.1-0.88,4.11-1.6,6.09c-0.08,0.24-0.24,0.34-0.53,0.24
			c-1.64-0.52-3.34-0.71-5.06-0.82c-0.45-0.02-0.54-0.17-0.53-0.58C45.9,69.07,45.87,68.05,45.87,67.02z M54.76,65.22
			c1.74,0.52,3.25,1.33,4.78,2.1c0.35,0.18,0.42,0.3,0.17,0.65c-1.29,1.77-2.81,3.26-4.83,4.24c-0.7,0.34-1.18-0.12-1.76-0.24
			c-0.17-0.04-0.11-0.27-0.05-0.4C53.91,69.54,54.34,67.41,54.76,65.22z M63.6,70.37c-1.77,1.3-3.68,2.36-5.66,3.31
			c-0.89,0.42-1.33-0.51-2.04-0.66c2.03-1.15,3.6-2.67,4.79-4.57c0.17-0.27,0.3-0.34,0.59-0.14c0.77,0.53,1.57,1.03,2.36,1.54
			C63.96,70.05,63.88,70.18,63.6,70.37z M75.87,51.59c-0.55,2.53-1.41,5-2.58,7.32c-1.98,3.93-4.62,7.32-7.99,10.16
			c-0.25,0.21-0.42,0.3-0.75,0.05c-0.78-0.59-1.6-1.16-2.46-1.67c-0.46-0.28-0.52-0.46-0.3-0.98c2.27-5.31,2.06-10.42-1.33-15.25
			c-0.54-0.77-1.23-1.44-1.95-2.04c-0.12-0.1-0.25-0.16-0.4-0.01c0.02,0.4,0.04,0.81,0.05,1.21c1.74,1.56,2.84,3.5,3.46,5.71
			c0.94,3.37,0.58,6.64-0.82,9.81c-0.21,0.48-0.35,0.63-0.9,0.33c-1.44-0.78-2.92-1.47-4.46-2c-0.39-0.13-0.51-0.28-0.47-0.68
			c0.06-0.95,0.05-1.89,0.11-2.84c0.04-0.43-0.18-0.46-0.48-0.43c-0.3,0.01-0.64-0.12-0.63,0.46c0.02,0.81-0.08,1.63-0.12,2.45
			c-0.01,0.37-0.11,0.45-0.49,0.35c-2.29-0.59-4.6-1.09-6.97-1.11c-0.4-0.01-0.51-0.21-0.48-0.57c0.01-0.3,0-0.6,0-0.89
			c0-0.37,0.1-0.74-0.53-0.71c-0.52,0.02-0.68,0.16-0.66,0.68c0.01,1.42-0.01,1.42-1.42,1.51c-1.97,0.11-3.9,0.42-5.79,0.98
			c-0.45,0.13-0.7,0.16-0.69-0.45c0.01-0.74-0.08-1.48-0.05-2.23c0.01-0.46-0.19-0.48-0.53-0.46c-0.3,0.02-0.68-0.12-0.65,0.43
			c0.05,0.89,0,1.8,0.1,2.68c0.05,0.42-0.07,0.6-0.42,0.72c-1.62,0.54-3.17,1.25-4.67,2.09c-0.35,0.21-0.51,0.17-0.68-0.28
			c-0.6-1.6-0.84-3.26-0.86-4.96c0-0.48-0.07-0.7-0.64-0.7c-0.58,0-0.47,0.31-0.48,0.66c-0.04,1.91,0.28,3.76,1,5.53
			c0.14,0.35,0.11,0.58-0.24,0.8c-1.01,0.68-2.01,1.36-3,2.08c-0.33,0.24-0.53,0.08-0.77-0.11c-1.86-1.54-3.55-3.27-5.02-5.2
			c-1.99-2.59-3.57-5.44-4.63-8.52c-1.53-4.43-2.09-8.98-1.62-13.67c0.48-4.67,1.93-8.98,4.31-12.99c1.88-3.2,4.32-5.94,7.18-8.3
			c0.23-0.19,0.39-0.19,0.63,0c0.98,0.75,1.99,1.48,3.09,2.06c0.39,0.21,0.24,0.45,0.13,0.66c-0.71,1.41-1.15,2.91-1.38,4.45
			c-0.58,4.04,0.22,7.76,2.65,11.08c0.11,0.16,0.28,0.27,0.42,0.4c0.1-0.24,0.16-0.51,0.39-0.68c0.19-0.28,0.07-0.47-0.11-0.72
			c-1.97-2.78-2.71-5.84-2.32-9.22c0.19-1.64,0.63-3.21,1.29-4.72c0.17-0.39,0.28-0.48,0.69-0.24c1.47,0.82,3.03,1.5,4.61,2.09
			c0.42,0.16,0.54,0.34,0.48,0.81c-0.1,0.89-0.07,1.79-0.13,2.68c-0.04,0.45,0.19,0.49,0.54,0.47c0.33-0.01,0.65,0.07,0.65-0.46
			c-0.01-0.82,0.04-1.64,0.05-2.46c0-0.36,0.1-0.47,0.48-0.36c2.3,0.66,4.66,1.05,7.05,1.18c0.33,0.02,0.42,0.17,0.39,0.48
			c-0.04,0.3,0,0.6-0.02,0.89c-0.02,0.45,0.02,0.74,0.63,0.75c0.65,0.01,0.57-0.35,0.57-0.75c0-1.27,0-1.28,1.24-1.39
			c2.1-0.19,4.2-0.43,6.23-1.1c0.4-0.12,0.47,0.07,0.48,0.41c0.04,0.77,0.13,1.54,0.12,2.3c0,0.45,0.17,0.49,0.52,0.51
			c0.39,0.01,0.64-0.06,0.62-0.52c-0.05-0.92-0.07-1.83-0.11-2.76c-0.01-0.27,0.01-0.41,0.34-0.52c1.65-0.54,3.23-1.27,4.75-2.11
			c0.54-0.3,0.64-0.01,0.76,0.35c0.47,1.57,0.81,3.17,0.78,4.83c0,0.45,0,0.72,0.6,0.71c0.65,0,0.59-0.36,0.57-0.77
			c-0.1-1.89-0.29-3.76-1.07-5.53c-0.13-0.3-0.11-0.47,0.19-0.66c0.95-0.59,1.87-1.22,2.79-1.85c0.29-0.21,0.43-0.07,0.64,0.1
			c3.9,3.35,6.89,7.35,8.84,12.13c0.84,2.05,1.53,4.15,1.87,6.33c0.4,2.52,0.7,5.06,0.42,7.64C76.32,48.55,76.2,50.09,75.87,51.59z"
			/>
		<path class="st6" d="M31.05,38.51c0.17-0.11,0.38-0.18,0.49-0.32c0.97-1.24,2.32-1.45,3.76-1.35c0.49,0.03,0.81-0.06,1.11-0.52
			c0.62-0.94,1.47-1.54,2.7-1.38c0.47,0.06,0.94,0.09,1.42,0.1c0.49,0.02,0.92,0.02,1.1-0.64c0.23-0.82,1.02-1.17,1.76-1.32
			c1.45-0.29,2.92-0.31,4.27,0.46c0.24,0.14,0.5,0.29,0.58,0.56c0.24,0.75,0.8,0.77,1.43,0.71c1.05-0.11,2.08-0.11,3.08,0.32
			c1.46,0.63,1.94,1.97,2.44,3.3c0.04,0.12,0.02,0.22-0.07,0.25c-0.16,0.06-0.29,0.03-0.46-0.1c-0.7-0.52-1.45-0.95-2.29-1.21
			c-0.91-0.28-1.81-0.55-2.76-0.22c-0.28,0.1-0.49,0.06-0.74-0.17c-1.65-1.55-4.28-1.69-6.07-0.3c-0.42,0.32-0.82,0.34-1.25,0.23
			c-2.04-0.52-3.79-0.04-5.23,1.5c-0.36,0.38-0.79,0.53-1.27,0.51c-0.64-0.03-1.23,0.2-1.83,0.32c-0.36,0.08-0.78,0.24-0.91,0.77
			c0.71,0.2,1.35-0.19,2-0.27c0.59-0.07,1.03-0.09,1.13,0.66c0.03,0.22,0.23,0.45,0.41,0.61c0.66,0.59,0.93,1.29,0.94,2.18
			c0.01,2.32,0.06,4.63,0.14,6.95c0.02,0.63-0.26,0.92-0.8,1.04c-0.51,0.11-1.04,0.11-1.56,0.02c-0.34-0.06-0.52-0.33-0.7-0.61
			c-0.96-1.5-1.18-3.2-1.44-4.9c-0.26-1.67-0.9-3.23-1.39-4.84c-0.17-0.54-0.38-1.08-0.35-1.67C30.75,38.94,30.82,38.68,31.05,38.51
			z"/>
		<path class="st6" d="M58.16,50.39c-0.04,1.47-0.69,2.62-1.76,3.63c-0.67,0.62-1.1,1.46-1.43,2.32c-0.68,1.76-2.2,1.95-3.61,1.67
			c-0.68-0.13-1.33-0.4-1.89-0.83c-0.91-0.72-1.96-0.87-3.09-0.79c-1.38,0.1-1.87-0.49-1.66-1.88c0.18-1.17,0.52-1.44,1.74-1.6
			c1.13-0.14,2.13,0.25,3.19,0.52c2.13,0.54,2.75,0.79,4.13-1.38c1.09-1.71,1.66-3.63,2.14-5.57c0.08-0.32,0.1-0.69,0.44-0.8
			c0.36-0.12,0.68,0.11,0.93,0.36c0.39,0.39,0.67,0.86,0.69,1.44c0.03,0.57-0.01,1.15,0.13,1.71
			C58.13,49.58,58.14,49.98,58.16,50.39z"/>
		<path class="st6" d="M48.9,40.3c-0.2,2.5-0.33,5.08-0.7,7.64c-0.18,1.27-0.3,2.56-0.51,3.83c-0.06,0.37-0.24,0.56-0.54,0.6
			c-1.19,0.16-2.37,0.14-3.51-0.36c-0.38-0.17-0.48-0.42-0.51-0.81c-0.24-3.94-0.29-7.9-0.66-11.84c-0.18-1.94,0.52-2.63,2.78-2.86
			c0.71-0.07,1.4,0.06,2.06,0.26c0.82,0.25,1.44,0.78,1.48,1.74C48.82,39.08,48.86,39.65,48.9,40.3z"/>
		<path class="st6" d="M55.79,41c-0.14,2.51-0.66,4.62-1.38,6.68c-0.57,1.63-1.2,3.22-2.12,4.69c-0.27,0.43-0.61,0.62-1.11,0.6
			c-0.35-0.02-0.7,0.01-1.05-0.01c-1.61-0.09-1.99-0.68-1.69-2.24c0.29-1.48,0.45-2.99,0.59-4.5c0.22-2.4,0.35-4.8,0.55-7.21
			c0.09-1.06,0.47-1.32,1.54-1.14c1.16,0.19,2.24,0.63,3.28,1.14C55.35,39.48,56.03,40.13,55.79,41z"/>
		<path class="st6" d="M42.43,49.96c0.07,1.64-0.06,1.78-1.5,1.8c-0.42,0.01-0.86,0.04-1.26-0.07c-1.14-0.31-2.01-0.5-1.92-2.14
			c0.12-2.31-0.08-4.62-0.23-6.93c-0.03-0.46-0.11-0.92-0.47-1.22c-0.68-0.58-0.97-1.31-0.7-2.13c0.31-0.94,1.1-1.43,2.06-1.63
			c0.71-0.15,1.42-0.13,2.15-0.03c0.78,0.1,1.05,0.55,1.21,1.19c0.36,1.43,0.32,2.91,0.43,4.37C42.35,45.51,42.15,47.85,42.43,49.96
			z"/>
		<path class="st6" d="M28.81,45.25c0,1.79-0.02,3.59,0.01,5.38c0.01,0.55-0.17,0.79-0.73,0.71c-0.2-0.03-0.4-0.02-0.6,0
			c-0.51,0.06-0.64-0.19-0.63-0.66c0.02-1.37-0.01-2.74,0.01-4.11c0.01-0.46-0.09-0.65-0.62-0.68c-0.6-0.02-0.49,0.32-0.49,0.66
			c0,1.37-0.02,2.74,0.01,4.11c0.01,0.52-0.14,0.7-0.67,0.68c-1.59-0.05-1.28,0.12-1.29-1.24c-0.01-3.39,0.01-6.77-0.02-10.16
			c0-0.59,0.11-0.82,0.76-0.8c1.21,0.05,1.21,0.01,1.21,1.24c0,1.02,0,2.04,0,3.06c0,0.33,0.01,0.58,0.47,0.54
			c0.4-0.03,0.66-0.06,0.64-0.57c-0.03-1.19,0.01-2.39-0.02-3.58c-0.01-0.51,0.12-0.7,0.66-0.68c1.55,0.05,1.28-0.16,1.29,1.24
			C28.82,42.01,28.81,43.63,28.81,45.25z"/>
		<path class="st6" d="M64.94,39.13c0.92,0,1.84,0.02,2.77-0.01c0.43-0.01,0.55,0.1,0.62,0.57c0.16,0.99-0.41,1.62-0.9,2.32
			c-0.12,0.18-0.37,0.35-0.28,0.57c0.1,0.26,0.4,0.15,0.6,0.13c0.44-0.05,0.55,0.14,0.56,0.55c0.05,1.42,0.06,1.45-1.4,1.38
			c-0.87-0.05-1.52,0.14-1.9,1c-0.18,0.4-0.56,0.72-0.72,1.12c-0.44,1.07-1.29,1.13-2.25,1.05c-0.37-0.03-0.45-0.08-0.21-0.42
			c0.5-0.71,0.95-1.45,1.43-2.17c0.1-0.14,0.26-0.29,0.2-0.46c-0.08-0.21-0.3-0.11-0.46-0.08c-0.49,0.07-0.64-0.13-0.63-0.63
			c0.03-1.33,0.01-1.42,1.36-1.3c1.04,0.09,1.54-0.38,1.97-1.18c0.2-0.38,0.13-0.48-0.27-0.48c-1.05,0-2.09-0.02-3.14,0.01
			c-0.5,0.02-0.7-0.08-0.69-0.64c0.02-1.33-0.01-1.33,1.34-1.33C63.59,39.13,64.26,39.13,64.94,39.13z"/>
		<path class="st6" d="M17.82,46.56c0-1.29,0.02-2.59-0.01-3.88c-0.01-0.47,0.12-0.67,0.62-0.65c1.35,0.03,2.69,0.02,4.04,0
			c0.44-0.01,0.61,0.11,0.61,0.58c0.02,1.37,0.04,1.37-1.31,1.37c-0.47,0-0.95,0.03-1.42-0.01c-0.47-0.04-0.6,0.16-0.59,0.6
			c0.02,1.39,0.02,2.78,0,4.17c-0.01,0.42,0.15,0.51,0.52,0.5c0.77-0.02,1.55,0.01,2.32-0.01c0.35-0.01,0.47,0.1,0.49,0.46
			c0.1,1.49,0.11,1.49-1.4,1.49c-1.1,0-2.19-0.02-3.29,0.01c-0.47,0.01-0.6-0.15-0.59-0.6C17.83,49.25,17.82,47.9,17.82,46.56z"/>
		<path class="st6" d="M66.81,51.37c-1.45,0-2.9-0.03-4.34,0.01c-0.66,0.02-0.99-0.13-0.88-0.85c0.04-0.29-0.01-0.6,0.01-0.9
			c0.03-0.36-0.19-0.89,0.11-1.06c0.47-0.26,1.07-0.1,1.61-0.07c0.18,0.01,0.25,0.13,0.22,0.31c-0.11,0.63,0.31,0.6,0.73,0.6
			c2.4-0.01,4.79,0.01,7.19-0.02c0.53-0.01,0.73,0.15,0.66,0.67c-0.03,0.22-0.02,0.45,0,0.67c0.02,0.43-0.11,0.62-0.6,0.61
			c-1.57-0.03-3.14-0.01-4.71-0.01C66.81,51.35,66.81,51.36,66.81,51.37z"/>
		<path class="st6" d="M71.89,43.76c0,1.29-0.03,2.59,0.01,3.88c0.02,0.52-0.12,0.76-0.66,0.68c-0.2-0.03-0.4-0.03-0.6,0
			c-0.52,0.07-0.75-0.13-0.66-0.65c0.08-0.51-0.1-0.74-0.64-0.67c-0.29,0.04-0.6,0.01-0.89,0.01c-1.44,0-1.59-0.19-1.39-1.65
			c0.05-0.35,0.25-0.31,0.47-0.31c0.57,0,1.15-0.04,1.72,0.01c0.56,0.04,0.78-0.1,0.76-0.72c-0.05-1.49,0.01-2.99-0.03-4.48
			c-0.01-0.56,0.14-0.73,0.71-0.71c1.45,0.06,1.2-0.16,1.22,1.24C71.9,41.52,71.89,42.64,71.89,43.76z"/>
		<path class="st6" d="M20.23,41.26c-0.72,0-1.45-0.02-2.17,0.01c-0.33,0.01-0.46-0.11-0.44-0.42c0-0.05,0-0.1,0-0.15
			c-0.05-1.38-0.05-1.38,1.32-1.38c1.11,0,2.23,0.02,3.34-0.01c0.51-0.02,0.77,0.12,0.69,0.66c-0.01,0.05,0,0.1,0,0.15
			c0.01,1.14,0.01,1.14-1.11,1.14c-0.27,0-0.55,0-0.82,0C20.78,41.26,20.5,41.26,20.23,41.26z"/>
		<path class="st6" d="M42.77,51.92c-0.04,1.26-0.45,1.67-1.57,1.79c-0.7,0.07-1.39-0.01-2.08-0.06c-0.77-0.06-1.26-0.81-1.32-1.99
			C39.42,52.33,41.04,52.72,42.77,51.92z"/>
		<path class="st6" d="M36.51,53.62c-1.07-0.06-1.92-0.47-2.39-1.48c-0.06-0.13-0.2-0.27-0.07-0.4c0.07-0.07,0.24-0.09,0.34-0.06
			c0.64,0.18,1.28,0.15,1.92-0.01c0.68-0.17,0.82,0.35,1.03,0.79C37.76,53.39,37.56,53.67,36.51,53.62z"/>
	</g>
</g>
</svg>
