<?xml version="1.0" encoding="utf-8"?>
<!-- Generator: Adobe Illustrator 24.0.2, SVG Export Plug-In . SVG Version: 6.00 Build 0)  -->
<svg version="1.1" id="Capa_1" xmlns="http://www.w3.org/2000/svg" xmlns:xlink="http://www.w3.org/1999/xlink" x="0px" y="0px"
	 viewBox="0 0 135 90" style="enable-background:new 0 0 135 90;" xml:space="preserve">
<style type="text/css">
	.st0{fill:#1D1D1B;}
	.st1{fill:#0B5391;}
	.st2{fill:#E4372E;}
	.st3{fill:#179A3A;}
	.st4{fill:#F9E013;}
	.st5{fill:#FFFFFF;}
	.st6{fill:#F5F8FA;}
	.st7{fill:none;stroke:#F5F8FA;stroke-miterlimit:10;}
	.st8{fill:none;stroke:#F7F7F7;stroke-miterlimit:10;}
	.st9{fill:none;stroke:#FFFFFF;stroke-miterlimit:10;}
</style>
<g>
	<path class="st6" d="M64.13,27.68c0.54-0.93,1.05-1.79,1.55-2.65c0.81-1.38,1.62-2.76,2.42-4.14c0.18-0.32,0.39-0.43,0.76-0.43
		c6.3-0.01,12.59-0.04,18.89-0.07c0.39,0,0.49,0.09,0.49,0.48c-0.02,2.97,0,5.93-0.02,8.9c0,0.35,0.1,0.42,0.43,0.42
		c4.49,0.05,8.98,0.11,13.47,0.16c0.4,0.01,0.8,0.03,1.19,0.03c0.27,0,0.28,0.07,0.16,0.29c-1.41,2.6-2.8,5.21-4.4,7.7
		c-0.43,0.67-0.9,0.97-1.75,0.95c-2.78-0.06-5.57-0.01-8.36-0.04c-0.45,0-0.52,0.13-0.51,0.54c0.02,3.9,0.06,7.81-0.01,11.71
		c-0.03,1.69,0.5,3.11,1.53,4.38c1.52,1.87,3.34,3.34,5.61,4.21c0.64,0.25,1.3,0.39,1.99,0.39c5.4,0,10.8,0,16.2-0.01
		c0.36,0,0.47,0.06,0.47,0.45c-0.02,2.75-0.02,5.51,0,8.26c0,0.33-0.07,0.42-0.41,0.42c-5.12-0.01-10.23-0.04-15.35,0
		c-2.95,0.03-5.69-0.68-8.3-1.98c-3.37-1.67-6.24-3.97-8.54-6.94c-1.57-2.03-2.76-4.24-3.2-6.8c-0.13-0.76-0.17-1.52-0.17-2.29
		c0-7.82,0-15.64,0.01-23.46c0-0.39-0.1-0.48-0.48-0.48c-4.36,0.01-8.73,0.01-13.09,0.01C64.54,27.68,64.38,27.68,64.13,27.68z"/>
	<path class="st6" d="M99.91,52.58c0.55-1.08,1.2-2.04,1.85-3c0.53-0.8,1.06-1.61,1.61-2.4c0.54-0.77,0.69-1.63,0.7-2.53
		c0.02-1.74-0.02-3.49,0.11-5.23c0.25-3.31,1.18-6.36,3.13-9.1c1.52-2.13,3.14-4.13,5.31-5.63c1.91-1.33,3.93-2.47,6.12-3.29
		c1.44-0.54,2.97-0.75,4.49-0.77c3.1-0.05,6.2-0.01,9.29-0.02c0.35,0,0.45,0.09,0.45,0.44c-0.02,2.75-0.02,5.51,0,8.26
		c0,0.4-0.12,0.46-0.48,0.45c-1.97-0.05-3.95-0.11-5.92-0.1c-3.72,0.01-6.84,1.38-9.38,4.07c-1.17,1.24-2.13,2.61-2.65,4.25
		c-0.19,0.61-0.3,1.24-0.31,1.87c-0.02,1.49,0.01,2.98-0.02,4.47c0,0.33,0.1,0.39,0.41,0.39c3.54-0.01,7.08,0,10.62-0.01
		c0.34,0,0.46,0.06,0.45,0.43c-0.02,2.36-0.02,4.71,0,7.07c0,0.33-0.1,0.39-0.4,0.39c-3.55-0.01-7.11,0-10.66-0.02
		c-0.34,0-0.42,0.09-0.41,0.42c0.02,1.96,0,3.92,0.02,5.88c0,0.3-0.08,0.37-0.38,0.37c-3.07-0.01-6.14-0.01-9.21,0
		c-0.31,0-0.41-0.06-0.4-0.39c0.02-1.96,0-3.92,0.02-5.88c0-0.31-0.06-0.4-0.39-0.4C102.57,52.59,101.27,52.58,99.91,52.58z"/>
	<path class="st6" d="M74.1,49.3c0,6.61,0,13.22,0.01,19.84c0,0.4-0.11,0.48-0.49,0.48c-3.03-0.02-6.05-0.01-9.08,0
		c-0.34,0-0.42-0.09-0.42-0.42c0.01-13.28,0.01-26.56,0-39.84c0-0.35,0.09-0.44,0.45-0.44c3.04,0.01,6.08,0.01,9.12,0
		c0.35,0,0.41,0.1,0.41,0.43C74.1,35.99,74.1,42.64,74.1,49.3z"/>
	<path class="st6" d="M27.6,22.43c0.96-0.03,1.82,0.01,2.63,0.4c1.04,0.49,1.65,1.38,2.09,2.38c1.49,3.43,2.9,6.88,4.09,10.43
		c0.97,2.91,2.12,5.76,3.17,8.65c0.85,2.31,1.84,4.58,2.44,6.97c0.88,3.49-1.72,6.35-4.59,6.26c-0.84-0.03-1.68-0.01-2.48-0.3
		c-1.41-0.51-2.16-1.65-2.69-2.96c-0.75-1.86-1.3-3.81-2.13-5.64c-2.03-4.45-3.46-9.13-5.26-13.67c-0.71-1.8-1.39-3.62-1.95-5.48
		c-0.6-2-0.47-3.9,0.96-5.55C24.88,22.76,26.16,22.28,27.6,22.43z"/>
	<path class="st6" d="M39.89,20.58c1.78-0.31,2.89,0.73,3.82,2.08c1.08,1.58,1.84,3.33,2.43,5.13c1.84,5.58,4.02,11.04,5.95,16.59
		c0.41,1.18,0.88,2.34,1.16,3.55c0.82,3.58-1.69,5.83-4.42,6.02c-1.06,0.07-2.13,0.05-3.11-0.51c-1.21-0.69-1.92-1.78-2.48-3
		c-0.58-1.28-0.91-2.65-1.34-3.98c-0.69-2.16-1.58-4.24-2.41-6.35c-1.38-3.53-2.62-7.12-3.86-10.71c-0.32-0.94-0.64-1.88-0.94-2.82
		c-0.62-1.94,0.04-3.53,1.44-4.87C37.17,20.73,38.44,20.43,39.89,20.58z"/>
	<path class="st6" d="M17.28,28.44c2.35-0.09,3.72,1.28,4.7,3.19c0.67,1.3,1,2.73,1.5,4.1c1.54,4.23,3.13,8.43,4.78,12.62
		c0.57,1.45,1.11,2.91,1.59,4.39c0.52,1.6,0.08,3.01-0.97,4.22c-1.36,1.57-3.14,2.18-5.2,1.93c-0.82-0.1-1.49-0.51-2.08-1.06
		c-1.18-1.1-1.87-2.51-2.48-3.97c-0.83-1.97-1.35-4.05-2.09-6.05c-1.09-2.92-2.21-5.82-3.3-8.73c-0.53-1.42-1.18-2.81-1.43-4.3
		c-0.46-2.75,0.96-5.76,3.92-6.25C16.56,28.46,16.92,28.46,17.28,28.44z"/>
	<path class="st6" d="M7.33,35.72c2.34-0.27,3.54,1.19,4.51,2.97c0.77,1.41,1.23,2.95,1.77,4.46c0.88,2.47,1.79,4.92,2.68,7.39
		c0.21,0.59,0.41,1.18,0.59,1.77c0.87,2.75,0,4.69-2.44,6.04c-1.68,0.93-3.46,0.93-5.16-0.04c-0.87-0.5-1.4-1.35-1.87-2.22
		c-0.7-1.31-1.12-2.72-1.64-4.1c-0.8-2.14-1.64-4.25-2.44-6.39c-0.45-1.21-0.82-2.44-1.14-3.69c-0.35-1.39-0.1-2.64,0.66-3.81
		c0.77-1.18,1.77-2.06,3.21-2.34C6.48,35.67,6.91,35.75,7.33,35.72z"/>
	<path class="st6" d="M34.05,64.52c-0.04-0.78,0.03-1.71,0.46-2.57c0.58-1.16,1.6-1.81,2.74-2.3c1.37-0.6,2.84-0.94,4.24-1.47
		c2.12-0.79,4.23-1.61,6.37-2.33c1.34-0.45,2.67-0.93,4.06-1.19c0.85-0.16,1.66,0.07,2.43,0.41c1.22,0.54,2.35,1.27,2.87,2.53
		c0.74,1.8,0.44,4.51-1.69,5.88c-1.24,0.8-2.6,1.31-3.99,1.74c-2.21,0.69-4.36,1.57-6.53,2.37c-1.5,0.55-2.97,1.21-4.52,1.56
		c-2.62,0.59-3.86,0.23-5.81-2.16C34.03,66.21,34.05,66.08,34.05,64.52z"/>
</g>
</svg>
