<?xml version="1.0" encoding="utf-8"?>
<!-- Generator: Adobe Illustrator 24.0.2, SVG Export Plug-In . SVG Version: 6.00 Build 0)  -->
<svg version="1.1" id="Capa_1" xmlns="http://www.w3.org/2000/svg" xmlns:xlink="http://www.w3.org/1999/xlink" x="0px" y="0px"
	 viewBox="0 0 1310.38 96.75" style="enable-background:new 0 0 1310.38 96.75;" xml:space="preserve">
<style type="text/css">
	.st0{clip-path:url(#SVGID_4_);}
	.st1{fill:#FFFFFF;}
	.st2{fill:#666666;}
	.st3{fill:#003580;}
	.st4{opacity:0.4;fill:url(#SVGID_5_);}
	.st5{opacity:0.4;fill:url(#SVGID_6_);}
	.st6{fill:url(#SVGID_7_);}
	.st7{clip-path:url(#SVGID_11_);}
	.st8{fill:#FFC300;}
	.st9{fill:#030E1A;}
	.st10{fill:#95A5A6;}
</style>
<g>
	<g>
		<path class="st10" d="M76.31,3.1v20.28H51.87v71.37H26.39V23.38H2.21V3.1H76.31z"/>
		<path class="st10" d="M143.78,79.8h-32.5l-4.94,14.95H79.56L112.97,3.1h29.38l33.28,91.65h-26.91L143.78,79.8z M137.41,60.3
			l-9.88-29.64l-9.75,29.64H137.41z"/>
		<path class="st10" d="M209.43,23.51v14.95h29.25v19.37h-29.25v16.51h33.15v20.41h-58.63V3.1h58.63v20.41H209.43z"/>
		<path class="st10" d="M309.4,94.75l-28.73-40.17v40.17h-25.48V3.1h25.48v39.52L309.14,3.1h29.38l-33.67,44.46l35.36,47.19H309.4z"
			/>
		<path class="st10" d="M478.66,3.1l-22.49,91.65h-31.33l-12.61-56.16l-12.87,56.16h-31.33L345.8,3.1h27.56l10.66,62.66L398.45,3.1
			h27.95l14.04,62.14L451.1,3.1H478.66z"/>
		<path class="st10" d="M509.72,89.62c-7.19-4.03-12.89-9.62-17.1-16.77c-4.2-7.15-6.3-15.23-6.3-24.25c0-9.01,2.1-17.09,6.3-24.24
			c4.2-7.15,9.9-12.72,17.1-16.71c7.19-3.99,15.08-5.98,23.66-5.98c8.67,0,16.57,2,23.72,5.98c7.15,3.99,12.81,9.55,16.97,16.71
			c4.16,7.15,6.24,15.23,6.24,24.24c0,9.01-2.08,17.1-6.24,24.25c-4.16,7.15-9.84,12.74-17.03,16.77
			c-7.19,4.03-15.08,6.04-23.66,6.04C524.8,95.66,516.92,93.65,509.72,89.62z M548.79,65.63c3.77-4.25,5.65-9.92,5.65-17.03
			c0-7.28-1.88-13.02-5.65-17.22c-3.77-4.2-8.9-6.3-15.4-6.3c-6.59,0-11.75,2.1-15.47,6.3c-3.73,4.21-5.59,9.95-5.59,17.22
			c0,7.2,1.86,12.89,5.59,17.1c3.73,4.2,8.88,6.3,15.47,6.3C539.88,72,545.02,69.88,548.79,65.63z"/>
		<path class="st10" d="M676.64,94.75h-25.48l-33.93-51.22v51.22h-25.48V3.1h25.48l33.93,51.87V3.1h25.48V94.75z"/>
		<path class="st10" d="M752.76,8.89c7.24,3.86,12.8,9.25,16.71,16.19c3.9,6.93,5.85,14.86,5.85,23.79c0,8.84-1.97,16.73-5.92,23.66
			c-3.94,6.94-9.53,12.37-16.77,16.32c-7.24,3.94-15.62,5.92-25.16,5.92H691.2V3.1h36.27C737.09,3.1,745.52,5.03,752.76,8.89z
			 M743.07,66.15c4.25-4.07,6.37-9.84,6.37-17.29c0-7.54-2.12-13.37-6.37-17.49c-4.25-4.12-10.1-6.17-17.55-6.17h-8.84v47.06h8.84
			C732.98,72.26,738.82,70.23,743.07,66.15z"/>
		<path class="st10" d="M807.03,89.62c-7.19-4.03-12.89-9.62-17.09-16.77c-4.2-7.15-6.3-15.23-6.3-24.25c0-9.01,2.1-17.09,6.3-24.24
			c4.2-7.15,9.9-12.72,17.09-16.71c7.19-3.99,15.08-5.98,23.66-5.98c8.67,0,16.58,2,23.73,5.98c7.15,3.99,12.8,9.55,16.96,16.71
			c4.16,7.15,6.24,15.23,6.24,24.24c0,9.01-2.08,17.1-6.24,24.25c-4.16,7.15-9.84,12.74-17.03,16.77
			c-7.19,4.03-15.08,6.04-23.66,6.04S814.22,93.65,807.03,89.62z M846.1,65.63c3.77-4.25,5.66-9.92,5.66-17.03
			c0-7.28-1.89-13.02-5.66-17.22c-3.77-4.2-8.91-6.3-15.41-6.3c-6.59,0-11.74,2.1-15.47,6.3c-3.73,4.21-5.59,9.95-5.59,17.22
			c0,7.2,1.86,12.89,5.59,17.1c3.73,4.2,8.88,6.3,15.47,6.3C837.19,72,842.33,69.88,846.1,65.63z"/>
		<path class="st10" d="M914.54,3.1v91.65h-25.48V3.1H914.54z"/>
		<path class="st10" d="M998.13,3.1v20.28h-24.44v71.37h-25.48V23.38h-24.18V3.1H998.13z"/>
		<path class="st10" d="M1069.76,3.1v20.28h-36.66V39.5h27.04v19.37h-27.04v35.88h-25.48V3.1H1069.76z"/>
	</g>
	<g>
		<path class="st10" d="M1086.62,93.4c-0.86-0.86-1.3-1.92-1.3-3.17c0-1.25,0.43-2.3,1.3-3.17s1.92-1.3,3.17-1.3
			c1.2,0,2.22,0.43,3.06,1.3s1.26,1.92,1.26,3.17c0,1.25-0.42,2.3-1.26,3.17c-0.84,0.86-1.86,1.3-3.06,1.3
			C1088.54,94.69,1087.48,94.26,1086.62,93.4z"/>
		<path class="st10" d="M1109.98,92.39c-3-1.68-5.35-4.07-7.06-7.16c-1.7-3.1-2.56-6.68-2.56-10.76c0-4.03,0.88-7.6,2.63-10.69
			c1.75-3.1,4.14-5.47,7.16-7.13c3.02-1.66,6.41-2.48,10.15-2.48s7.13,0.83,10.15,2.48c3.02,1.66,5.41,4.02,7.16,7.09
			c1.75,3.07,2.63,6.65,2.63,10.73c0,4.08-0.9,7.67-2.7,10.76s-4.24,5.48-7.31,7.16c-3.07,1.68-6.48,2.52-10.22,2.52
			C1116.33,94.91,1112.98,94.07,1109.98,92.39z M1126.65,87.49c2.06-1.1,3.73-2.76,5-4.97c1.27-2.21,1.91-4.9,1.91-8.06
			s-0.62-5.86-1.87-8.06c-1.25-2.21-2.88-3.85-4.9-4.93c-2.02-1.08-4.2-1.62-6.55-1.62c-2.4,0-4.6,0.54-6.59,1.62
			c-1.99,1.08-3.59,2.72-4.79,4.93c-1.2,2.21-1.8,4.9-1.8,8.06c0,3.22,0.59,5.93,1.76,8.14c1.17,2.21,2.75,3.85,4.72,4.93
			c1.97,1.08,4.13,1.62,6.48,1.62C1122.38,89.15,1124.58,88.6,1126.65,87.49z"/>
		<path class="st10" d="M1179.79,58.44c2.98,2.91,4.46,7.09,4.46,12.56v23.26h-6.48V71.94c0-3.93-0.98-6.95-2.95-9.04
			c-1.97-2.09-4.66-3.13-8.06-3.13c-3.46,0-6.2,1.08-8.24,3.24c-2.04,2.16-3.06,5.3-3.06,9.43v21.82h-6.55V54.81h6.55v5.62
			c1.3-2.02,3.06-3.58,5.29-4.68c2.23-1.1,4.69-1.66,7.38-1.66C1172.92,54.09,1176.81,55.54,1179.79,58.44z"/>
		<path class="st10" d="M1201.53,40.98v53.28h-6.55V40.98H1201.53z"/>
		<path class="st10" d="M1212.9,47.1c-0.86-0.86-1.3-1.92-1.3-3.17c0-1.25,0.43-2.3,1.3-3.17c0.86-0.86,1.92-1.3,3.17-1.3
			c1.2,0,2.22,0.43,3.06,1.3c0.84,0.86,1.26,1.92,1.26,3.17c0,1.25-0.42,2.3-1.26,3.17c-0.84,0.86-1.86,1.3-3.06,1.3
			C1214.82,48.4,1213.77,47.97,1212.9,47.1z M1219.24,54.81v39.46h-6.55V54.81H1219.24z"/>
		<path class="st10" d="M1261.29,58.44c2.98,2.91,4.46,7.09,4.46,12.56v23.26h-6.48V71.94c0-3.93-0.98-6.95-2.95-9.04
			c-1.97-2.09-4.66-3.13-8.06-3.13c-3.46,0-6.2,1.08-8.24,3.24c-2.04,2.16-3.06,5.3-3.06,9.43v21.82h-6.55V54.81h6.55v5.62
			c1.3-2.02,3.06-3.58,5.29-4.68c2.23-1.1,4.69-1.66,7.38-1.66C1254.42,54.09,1258.31,55.54,1261.29,58.44z"/>
		<path class="st10" d="M1312.26,76.98h-31.54c0.24,3.89,1.57,6.92,4,9.11c2.42,2.18,5.36,3.28,8.82,3.28c2.83,0,5.2-0.66,7.09-1.98
			c1.9-1.32,3.23-3.08,4-5.29h7.06c-1.06,3.79-3.17,6.88-6.34,9.25s-7.1,3.56-11.81,3.56c-3.74,0-7.09-0.84-10.04-2.52
			c-2.95-1.68-5.27-4.07-6.95-7.16c-1.68-3.1-2.52-6.68-2.52-10.76c0-4.08,0.82-7.66,2.45-10.73c1.63-3.07,3.92-5.44,6.88-7.09
			s6.35-2.48,10.19-2.48c3.74,0,7.06,0.82,9.94,2.45c2.88,1.63,5.1,3.88,6.66,6.73c1.56,2.86,2.34,6.08,2.34,9.68
			C1312.48,74.27,1312.41,75.59,1312.26,76.98z M1304.06,65.21c-1.1-1.8-2.6-3.17-4.5-4.1c-1.9-0.94-4-1.4-6.3-1.4
			c-3.31,0-6.13,1.06-8.46,3.17c-2.33,2.11-3.66,5.04-4,8.78h24.91C1305.71,69.16,1305.16,67.01,1304.06,65.21z"/>
	</g>
</g>
</svg>
